{
	"asset":{
		"generator":"Khronos glTF Blender I/O v4.0.44",
		"version":"2.0"
	},
	"extensionsUsed":[
		"KHR_materials_specular",
		"KHR_materials_ior"
	],
	"scene":0,
	"scenes":[
		{
			"name":"Scene",
			"nodes":[
				0
			]
		}
	],
	"nodes":[
		{
			"mesh":0,
			"name":"Wizard",
			"rotation":[
				0.7071068286895752,
				0,
				0,
				0.7071068286895752
			],
			"scale":[
				0.009999999776482582,
				0.009999999776482582,
				0.009999999776482582
			]
		}
	],
	"materials":[
		{
			"doubleSided":true,
			"extensions":{
				"KHR_materials_specular":{
					"specularColorFactor":[
						2.0,
						2.0,
						2.0
					]
				},
				"KHR_materials_ior":{
					"ior":1.4500000476837158
				}
			},
			"name":"M_WizardAc",
			"pbrMetallicRoughness":{
				"baseColorTexture":{
					"index":0
				},
				"metallicRoughnessTexture":{
					"index":1
				}
			}
		},
		{
			"doubleSided":true,
			"extensions":{
				"KHR_materials_specular":{
					"specularColorFactor":[
						2.0,
						2.0,
						2.0
					]
				},
				"KHR_materials_ior":{
					"ior":1.4500000476837158
				}
			},
			"name":"M_WizardHead",
			"pbrMetallicRoughness":{
				"baseColorTexture":{
					"index":2
				},
				"metallicRoughnessTexture":{
					"index":3
				}
			}
		},
		{
			"doubleSided":true,
			"extensions":{
				"KHR_materials_specular":{
					"specularColorFactor":[
						2.0,
						2.0,
						2.0
					]
				},
				"KHR_materials_ior":{
					"ior":1.4500000476837158
				}
			},
			"name":"M_WizardBody",
			"pbrMetallicRoughness":{
				"baseColorTexture":{
					"index":4
				},
				"metallicRoughnessTexture":{
					"index":5
				}
			}
		}
	],
	"meshes":[
		{
			"name":"Mesh",
			"primitives":[
				{
					"attributes":{
						"COLOR_0":0,
						"POSITION":1,
						"NORMAL":2,
						"TEXCOORD_0":3,
						"TANGENT":4
					},
					"indices":5,
					"material":0
				},
				{
					"attributes":{
						"COLOR_0":6,
						"POSITION":7,
						"NORMAL":8,
						"TEXCOORD_0":9,
						"TANGENT":10
					},
					"indices":11,
					"material":1
				},
				{
					"attributes":{
						"COLOR_0":12,
						"POSITION":13,
						"NORMAL":14,
						"TEXCOORD_0":15,
						"TANGENT":16
					},
					"indices":17,
					"material":2
				}
			]
		}
	],
	"textures":[
		{
			"sampler":0,
			"source":0
		},
		{
			"sampler":0,
			"source":1
		},
		{
			"sampler":0,
			"source":2
		},
		{
			"sampler":0,
			"source":3
		},
		{
			"sampler":0,
			"source":4
		},
		{
			"sampler":0,
			"source":5
		}
	],
	"images":[
		{
			"mimeType":"image/png",
			"name":"M_WizardAc_Base_color",
			"uri":"M_WizardAc_Base_color.png"
		},
		{
			"mimeType":"image/png",
			"name":"M_WizardAc_Metallic-M_WizardAc_Roughness",
			"uri":"M_WizardAc_Metallic-M_WizardAc_Roughness.png"
		},
		{
			"mimeType":"image/png",
			"name":"M_WizardHead_Base_color",
			"uri":"M_WizardHead_Base_color.png"
		},
		{
			"mimeType":"image/png",
			"name":"M_WizardHead_Metallic-M_WizardHead_Roughness",
			"uri":"M_WizardHead_Metallic-M_WizardHead_Roughness.png"
		},
		{
			"mimeType":"image/png",
			"name":"M_WizardBody_Base_color",
			"uri":"M_WizardBody_Base_color.png"
		},
		{
			"mimeType":"image/png",
			"name":"M_WizardBody_Metallic-M_WizardBody_Roughness",
			"uri":"M_WizardBody_Metallic-M_WizardBody_Roughness.png"
		}
	],
	"accessors":[
		{
			"bufferView":0,
			"componentType":5123,
			"count":772,
			"normalized":true,
			"type":"VEC4"
		},
		{
			"bufferView":1,
			"componentType":5126,
			"count":772,
			"max":[
				46.47735595703125,
				39.2420654296875,
				-12.656298637390137
			],
			"min":[
				-47.97247314453125,
				-63.78034973144531,
				-137.91624450683594
			],
			"type":"VEC3"
		},
		{
			"bufferView":2,
			"componentType":5126,
			"count":772,
			"type":"VEC3"
		},
		{
			"bufferView":3,
			"componentType":5126,
			"count":772,
			"type":"VEC2"
		},
		{
			"bufferView":4,
			"componentType":5126,
			"count":772,
			"type":"VEC4"
		},
		{
			"bufferView":5,
			"componentType":5123,
			"count":3426,
			"type":"SCALAR"
		},
		{
			"bufferView":6,
			"componentType":5123,
			"count":1125,
			"normalized":true,
			"type":"VEC4"
		},
		{
			"bufferView":7,
			"componentType":5126,
			"count":1125,
			"max":[
				39.16850662231445,
				30.819015502929688,
				-51.15347671508789
			],
			"min":[
				-39.20600509643555,
				-25.25202751159668,
				-124.5533676147461
			],
			"type":"VEC3"
		},
		{
			"bufferView":8,
			"componentType":5126,
			"count":1125,
			"type":"VEC3"
		},
		{
			"bufferView":9,
			"componentType":5126,
			"count":1125,
			"type":"VEC2"
		},
		{
			"bufferView":10,
			"componentType":5126,
			"count":1125,
			"type":"VEC4"
		},
		{
			"bufferView":11,
			"componentType":5123,
			"count":4581,
			"type":"SCALAR"
		},
		{
			"bufferView":12,
			"componentType":5123,
			"count":2265,
			"normalized":true,
			"type":"VEC4"
		},
		{
			"bufferView":13,
			"componentType":5126,
			"count":2265,
			"max":[
				56.48360061645508,
				17.43109893798828,
				6.489120778496726e-07
			],
			"min":[
				-56.48360061645508,
				-11.003604888916016,
				-65.17940521240234
			],
			"type":"VEC3"
		},
		{
			"bufferView":14,
			"componentType":5126,
			"count":2265,
			"type":"VEC3"
		},
		{
			"bufferView":15,
			"componentType":5126,
			"count":2265,
			"type":"VEC2"
		},
		{
			"bufferView":16,
			"componentType":5126,
			"count":2265,
			"type":"VEC4"
		},
		{
			"bufferView":17,
			"componentType":5123,
			"count":8784,
			"type":"SCALAR"
		}
	],
	"bufferViews":[
		{
			"buffer":0,
			"byteLength":6176,
			"byteOffset":0,
			"target":34962
		},
		{
			"buffer":0,
			"byteLength":9264,
			"byteOffset":6176,
			"target":34962
		},
		{
			"buffer":0,
			"byteLength":9264,
			"byteOffset":15440,
			"target":34962
		},
		{
			"buffer":0,
			"byteLength":6176,
			"byteOffset":24704,
			"target":34962
		},
		{
			"buffer":0,
			"byteLength":12352,
			"byteOffset":30880,
			"target":34962
		},
		{
			"buffer":0,
			"byteLength":6852,
			"byteOffset":43232,
			"target":34963
		},
		{
			"buffer":0,
			"byteLength":9000,
			"byteOffset":50084,
			"target":34962
		},
		{
			"buffer":0,
			"byteLength":13500,
			"byteOffset":59084,
			"target":34962
		},
		{
			"buffer":0,
			"byteLength":13500,
			"byteOffset":72584,
			"target":34962
		},
		{
			"buffer":0,
			"byteLength":9000,
			"byteOffset":86084,
			"target":34962
		},
		{
			"buffer":0,
			"byteLength":18000,
			"byteOffset":95084,
			"target":34962
		},
		{
			"buffer":0,
			"byteLength":9162,
			"byteOffset":113084,
			"target":34963
		},
		{
			"buffer":0,
			"byteLength":18120,
			"byteOffset":122248,
			"target":34962
		},
		{
			"buffer":0,
			"byteLength":27180,
			"byteOffset":140368,
			"target":34962
		},
		{
			"buffer":0,
			"byteLength":27180,
			"byteOffset":167548,
			"target":34962
		},
		{
			"buffer":0,
			"byteLength":18120,
			"byteOffset":194728,
			"target":34962
		},
		{
			"buffer":0,
			"byteLength":36240,
			"byteOffset":212848,
			"target":34962
		},
		{
			"buffer":0,
			"byteLength":17568,
			"byteOffset":249088,
			"target":34963
		}
	],
	"samplers":[
		{
			"magFilter":9729,
			"minFilter":9987
		}
	],
	"buffers":[
		{
			"byteLength":266656,
			"uri":"Wizard.bin"
		}
	]
}
