{
	"asset":{
		"generator":"Khronos glTF Blender I/O v4.0.44",
		"version":"2.0"
	},
	"extensionsUsed":[
		"KHR_materials_specular",
		"KHR_materials_ior"
	],
	"scene":0,
	"scenes":[
		{
			"name":"Scene",
			"nodes":[
				0
			]
		}
	],
	"nodes":[
		{
			"mesh":0,
			"name":"Tree",
			"rotation":[
				0.7071068286895752,
				0,
				0,
				0.7071068286895752
			],
			"scale":[
				0.009999999776482582,
				0.009999999776482582,
				0.009999999776482582
			],
			"translation":[
				-0.02719879150390625,
				-0.03911389410495758,
				-0.136661097407341
			]
		}
	],
	"materials":[
		{
			"doubleSided":true,
			"extensions":{
				"KHR_materials_specular":{
					"specularColorFactor":[
						2.0,
						2.0,
						2.0
					]
				},
				"KHR_materials_ior":{
					"ior":1.4500000476837158
				}
			},
			"name":"M_TreeTrunk",
			"normalTexture":{
				"index":0
			},
			"pbrMetallicRoughness":{
				"baseColorTexture":{
					"index":1
				},
				"metallicRoughnessTexture":{
					"index":2
				}
			}
		},
		{
			"doubleSided":true,
			"extensions":{
				"KHR_materials_specular":{
					"specularColorFactor":[
						2.0,
						2.0,
						2.0
					]
				},
				"KHR_materials_ior":{
					"ior":1.4500000476837158
				}
			},
			"name":"M_TreeLeaves",
			"normalTexture":{
				"index":3
			},
			"pbrMetallicRoughness":{
				"baseColorTexture":{
					"index":4
				},
				"metallicRoughnessTexture":{
					"index":5
				}
			}
		}
	],
	"meshes":[
		{
			"name":"Tree",
			"primitives":[
				{
					"attributes":{
						"POSITION":0,
						"NORMAL":1,
						"TEXCOORD_0":2,
						"TANGENT":3
					},
					"indices":4,
					"material":0
				},
				{
					"attributes":{
						"POSITION":5,
						"NORMAL":6,
						"TEXCOORD_0":7,
						"TANGENT":8
					},
					"indices":9,
					"material":1
				}
			]
		}
	],
	"textures":[
		{
			"sampler":0,
			"source":0
		},
		{
			"sampler":0,
			"source":1
		},
		{
			"sampler":0,
			"source":2
		},
		{
			"sampler":0,
			"source":3
		},
		{
			"sampler":0,
			"source":4
		},
		{
			"sampler":0,
			"source":5
		}
	],
	"images":[
		{
			"mimeType":"image/png",
			"name":"M_TreeTrunk_Normal_DirectX",
			"uri":"M_TreeTrunk_Normal_DirectX.png"
		},
		{
			"mimeType":"image/png",
			"name":"M_TreeTrunk_Base_color",
			"uri":"M_TreeTrunk_Base_color.png"
		},
		{
			"mimeType":"image/png",
			"name":"M_TreeTrunk_Metallic.png-M_TreeTrunk_Roughness.png",
			"uri":"M_TreeTrunk_Metallic_png-M_TreeTrunk_Roughness_png.png"
		},
		{
			"mimeType":"image/png",
			"name":"M_TreeLeaves_Normal_DirectX",
			"uri":"M_TreeLeaves_Normal_DirectX.png"
		},
		{
			"mimeType":"image/png",
			"name":"M_TreeLeaves_Base_color",
			"uri":"M_TreeLeaves_Base_color.png"
		},
		{
			"mimeType":"image/png",
			"name":"M_TreeLeaves_Metallic.png-M_TreeLeaves_Roughness.png",
			"uri":"M_TreeLeaves_Metallic_png-M_TreeLeaves_Roughness_png.png"
		}
	],
	"accessors":[
		{
			"bufferView":0,
			"componentType":5126,
			"count":759,
			"max":[
				163.0559539794922,
				172.3438720703125,
				17.70462417602539
			],
			"min":[
				-176.8395538330078,
				-138.40008544921875,
				-198.37899780273438
			],
			"type":"VEC3"
		},
		{
			"bufferView":1,
			"componentType":5126,
			"count":759,
			"type":"VEC3"
		},
		{
			"bufferView":2,
			"componentType":5126,
			"count":759,
			"type":"VEC2"
		},
		{
			"bufferView":3,
			"componentType":5126,
			"count":759,
			"type":"VEC4"
		},
		{
			"bufferView":4,
			"componentType":5123,
			"count":2490,
			"type":"SCALAR"
		},
		{
			"bufferView":5,
			"componentType":5126,
			"count":3096,
			"max":[
				128.16184997558594,
				141.49737548828125,
				-126.29438018798828
			],
			"min":[
				-115.89485168457031,
				-105.41754150390625,
				-518.04638671875
			],
			"type":"VEC3"
		},
		{
			"bufferView":6,
			"componentType":5126,
			"count":3096,
			"type":"VEC3"
		},
		{
			"bufferView":7,
			"componentType":5126,
			"count":3096,
			"type":"VEC2"
		},
		{
			"bufferView":8,
			"componentType":5126,
			"count":3096,
			"type":"VEC4"
		},
		{
			"bufferView":9,
			"componentType":5123,
			"count":8760,
			"type":"SCALAR"
		}
	],
	"bufferViews":[
		{
			"buffer":0,
			"byteLength":9108,
			"byteOffset":0,
			"target":34962
		},
		{
			"buffer":0,
			"byteLength":9108,
			"byteOffset":9108,
			"target":34962
		},
		{
			"buffer":0,
			"byteLength":6072,
			"byteOffset":18216,
			"target":34962
		},
		{
			"buffer":0,
			"byteLength":12144,
			"byteOffset":24288,
			"target":34962
		},
		{
			"buffer":0,
			"byteLength":4980,
			"byteOffset":36432,
			"target":34963
		},
		{
			"buffer":0,
			"byteLength":37152,
			"byteOffset":41412,
			"target":34962
		},
		{
			"buffer":0,
			"byteLength":37152,
			"byteOffset":78564,
			"target":34962
		},
		{
			"buffer":0,
			"byteLength":24768,
			"byteOffset":115716,
			"target":34962
		},
		{
			"buffer":0,
			"byteLength":49536,
			"byteOffset":140484,
			"target":34962
		},
		{
			"buffer":0,
			"byteLength":17520,
			"byteOffset":190020,
			"target":34963
		}
	],
	"samplers":[
		{
			"magFilter":9729,
			"minFilter":9987
		}
	],
	"buffers":[
		{
			"byteLength":207540,
			"uri":"Tree.bin"
		}
	]
}
