{
	"asset":{
		"generator":"Khronos glTF Blender I/O v4.0.44",
		"version":"2.0"
	},
	"extensionsUsed":[
		"KHR_materials_specular",
		"KHR_materials_ior"
	],
	"scene":0,
	"scenes":[
		{
			"name":"Scene",
			"nodes":[
				0,
				1,
				2,
				3,
				4
			]
		}
	],
	"nodes":[
		{
			"mesh":0,
			"name":"Mushroom02",
			"rotation":[
				0.7071068286895752,
				0,
				0,
				0.7071068286895752
			],
			"scale":[
				0.009999999776482582,
				0.009999999776482582,
				0.009999999776482582
			],
			"translation":[
				-3.3617660999298096,
				0.14350080490112305,
				-2.1490440368652344
			]
		},
		{
			"mesh":1,
			"name":"Mushroom01",
			"rotation":[
				0.7071068286895752,
				0,
				0,
				0.7071068286895752
			],
			"scale":[
				0.009999999776482582,
				0.009999999776482582,
				0.009999999776482582
			],
			"translation":[
				-4.237303256988525,
				0.2654474079608917,
				-3.434049606323242
			]
		},
		{
			"mesh":2,
			"name":"Blurp01",
			"rotation":[
				0.7071068286895752,
				0,
				0,
				0.7071068286895752
			],
			"scale":[
				0.009999999776482582,
				0.009999999776482582,
				0.009999999776482582
			],
			"translation":[
				-11.604681015014648,
				0.09305690228939056,
				0.0017613426316529512
			]
		},
		{
			"mesh":3,
			"name":"Fern",
			"rotation":[
				0.7071068286895752,
				0,
				0,
				0.7071068286895752
			],
			"scale":[
				0.009999999776482582,
				0.009999999776482582,
				0.009999999776482582
			],
			"translation":[
				-1.7623614072799683,
				0.09267110377550125,
				-6.294623374938965
			]
		},
		{
			"mesh":4,
			"name":"Blurp02",
			"rotation":[
				0.6697399616241455,
				-0.22682224214076996,
				0.22682221233844757,
				0.6697401404380798
			],
			"scale":[
				0.009999999776482582,
				0.009999999776482582,
				0.009999999776482582
			],
			"translation":[
				-3.8655896186828613,
				0.2521037757396698,
				-3.7175328731536865
			]
		}
	],
	"materials":[
		{
			"doubleSided":true,
			"extensions":{
				"KHR_materials_specular":{
					"specularColorFactor":[
						2.0,
						2.0,
						2.0
					]
				},
				"KHR_materials_ior":{
					"ior":1.4500000476837158
				}
			},
			"name":"M_Foliage",
			"pbrMetallicRoughness":{
				"baseColorTexture":{
					"index":0
				},
				"metallicRoughnessTexture":{
					"index":1
				}
			}
		}
	],
	"meshes":[
		{
			"name":"Mesh.007",
			"primitives":[
				{
					"attributes":{
						"POSITION":0,
						"NORMAL":1,
						"TEXCOORD_0":2
					},
					"indices":3,
					"material":0
				}
			]
		},
		{
			"name":"Mesh.010",
			"primitives":[
				{
					"attributes":{
						"POSITION":4,
						"NORMAL":5,
						"TEXCOORD_0":6
					},
					"indices":7,
					"material":0
				}
			]
		},
		{
			"name":"Mesh.012",
			"primitives":[
				{
					"attributes":{
						"POSITION":8,
						"NORMAL":9,
						"TEXCOORD_0":10
					},
					"indices":11,
					"material":0
				}
			]
		},
		{
			"name":"Mesh.015",
			"primitives":[
				{
					"attributes":{
						"POSITION":12,
						"NORMAL":13,
						"TEXCOORD_0":14
					},
					"indices":15,
					"material":0
				}
			]
		},
		{
			"name":"Mesh.011",
			"primitives":[
				{
					"attributes":{
						"POSITION":16,
						"NORMAL":17,
						"TEXCOORD_0":18
					},
					"indices":19,
					"material":0
				}
			]
		}
	],
	"textures":[
		{
			"sampler":0,
			"source":0
		},
		{
			"sampler":0,
			"source":1
		}
	],
	"images":[
		{
			"mimeType":"image/png",
			"name":"M_Foliage_Base_color",
			"uri":"M_Foliage_Base_color.png"
		},
		{
			"mimeType":"image/png",
			"name":"M_Foliage_Metallic-M_Foliage_Roughness",
			"uri":"M_Foliage_Metallic-M_Foliage_Roughness.png"
		}
	],
	"accessors":[
		{
			"bufferView":0,
			"componentType":5126,
			"count":21150,
			"max":[
				2725.9033203125,
				2031.0224609375,
				17.843271255493164
			],
			"min":[
				-3556.415771484375,
				-3466.395263671875,
				-23.675395965576172
			],
			"type":"VEC3"
		},
		{
			"bufferView":1,
			"componentType":5126,
			"count":21150,
			"type":"VEC3"
		},
		{
			"bufferView":2,
			"componentType":5126,
			"count":21150,
			"type":"VEC2"
		},
		{
			"bufferView":3,
			"componentType":5123,
			"count":84600,
			"type":"SCALAR"
		},
		{
			"bufferView":4,
			"componentType":5126,
			"count":12627,
			"max":[
				2819.4609375,
				2170.359375,
				28.224502563476562
			],
			"min":[
				-3489.538330078125,
				-3355.700439453125,
				-23.287076950073242
			],
			"type":"VEC3"
		},
		{
			"bufferView":5,
			"componentType":5126,
			"count":12627,
			"type":"VEC3"
		},
		{
			"bufferView":6,
			"componentType":5126,
			"count":12627,
			"type":"VEC2"
		},
		{
			"bufferView":7,
			"componentType":5123,
			"count":52155,
			"type":"SCALAR"
		},
		{
			"bufferView":8,
			"componentType":5126,
			"count":31565,
			"max":[
				4512.9453125,
				5360.26806640625,
				1191.9742431640625
			],
			"min":[
				-3172.6708984375,
				-2556.591796875,
				-31.138717651367188
			],
			"type":"VEC3"
		},
		{
			"bufferView":9,
			"componentType":5126,
			"count":31565,
			"type":"VEC3"
		},
		{
			"bufferView":10,
			"componentType":5126,
			"count":31565,
			"type":"VEC2"
		},
		{
			"bufferView":11,
			"componentType":5123,
			"count":145092,
			"type":"SCALAR"
		},
		{
			"bufferView":12,
			"componentType":5126,
			"count":25110,
			"max":[
				2939.605712890625,
				3847.5703125,
				12.098851203918457
			],
			"min":[
				-4145.1865234375,
				-2829.475830078125,
				-28.99932098388672
			],
			"type":"VEC3"
		},
		{
			"bufferView":13,
			"componentType":5126,
			"count":25110,
			"type":"VEC3"
		},
		{
			"bufferView":14,
			"componentType":5126,
			"count":25110,
			"type":"VEC2"
		},
		{
			"bufferView":15,
			"componentType":5123,
			"count":97200,
			"type":"SCALAR"
		},
		{
			"bufferView":16,
			"componentType":5126,
			"count":11590,
			"max":[
				3036.37939453125,
				3273.0576171875,
				37.79887390136719
			],
			"min":[
				-3043.58251953125,
				-2252.0263671875,
				-63.647979736328125
			],
			"type":"VEC3"
		},
		{
			"bufferView":17,
			"componentType":5126,
			"count":11590,
			"type":"VEC3"
		},
		{
			"bufferView":18,
			"componentType":5126,
			"count":11590,
			"type":"VEC2"
		},
		{
			"bufferView":19,
			"componentType":5123,
			"count":52440,
			"type":"SCALAR"
		}
	],
	"bufferViews":[
		{
			"buffer":0,
			"byteLength":253800,
			"byteOffset":0,
			"target":34962
		},
		{
			"buffer":0,
			"byteLength":253800,
			"byteOffset":253800,
			"target":34962
		},
		{
			"buffer":0,
			"byteLength":169200,
			"byteOffset":507600,
			"target":34962
		},
		{
			"buffer":0,
			"byteLength":169200,
			"byteOffset":676800,
			"target":34963
		},
		{
			"buffer":0,
			"byteLength":151524,
			"byteOffset":846000,
			"target":34962
		},
		{
			"buffer":0,
			"byteLength":151524,
			"byteOffset":997524,
			"target":34962
		},
		{
			"buffer":0,
			"byteLength":101016,
			"byteOffset":1149048,
			"target":34962
		},
		{
			"buffer":0,
			"byteLength":104310,
			"byteOffset":1250064,
			"target":34963
		},
		{
			"buffer":0,
			"byteLength":378780,
			"byteOffset":1354376,
			"target":34962
		},
		{
			"buffer":0,
			"byteLength":378780,
			"byteOffset":1733156,
			"target":34962
		},
		{
			"buffer":0,
			"byteLength":252520,
			"byteOffset":2111936,
			"target":34962
		},
		{
			"buffer":0,
			"byteLength":290184,
			"byteOffset":2364456,
			"target":34963
		},
		{
			"buffer":0,
			"byteLength":301320,
			"byteOffset":2654640,
			"target":34962
		},
		{
			"buffer":0,
			"byteLength":301320,
			"byteOffset":2955960,
			"target":34962
		},
		{
			"buffer":0,
			"byteLength":200880,
			"byteOffset":3257280,
			"target":34962
		},
		{
			"buffer":0,
			"byteLength":194400,
			"byteOffset":3458160,
			"target":34963
		},
		{
			"buffer":0,
			"byteLength":139080,
			"byteOffset":3652560,
			"target":34962
		},
		{
			"buffer":0,
			"byteLength":139080,
			"byteOffset":3791640,
			"target":34962
		},
		{
			"buffer":0,
			"byteLength":92720,
			"byteOffset":3930720,
			"target":34962
		},
		{
			"buffer":0,
			"byteLength":104880,
			"byteOffset":4023440,
			"target":34963
		}
	],
	"samplers":[
		{
			"magFilter":9729,
			"minFilter":9987
		}
	],
	"buffers":[
		{
			"byteLength":4128320,
			"uri":"Foliage.bin"
		}
	]
}
