{
	"asset":{
		"generator":"Khronos glTF Blender I/O v4.0.44",
		"version":"2.0"
	},
	"extensionsUsed":[
		"KHR_materials_specular",
		"KHR_materials_ior"
	],
	"scene":0,
	"scenes":[
		{
			"name":"Scene",
			"nodes":[
				0
			]
		}
	],
	"nodes":[
		{
			"mesh":0,
			"name":"Monster01",
			"rotation":[
				0.70710688829422,
				0,
				0,
				0.7071066498756409
			],
			"scale":[
				0.009999999776482582,
				0.010000000707805157,
				0.010000000707805157
			]
		}
	],
	"materials":[
		{
			"doubleSided":true,
			"extensions":{
				"KHR_materials_specular":{
					"specularColorFactor":[
						2.0,
						2.0,
						2.0
					]
				},
				"KHR_materials_ior":{
					"ior":1.4500000476837158
				}
			},
			"name":"M_Monster01",
			"pbrMetallicRoughness":{
				"baseColorTexture":{
					"index":0
				},
				"metallicFactor":0.5,
				"roughnessFactor":0.7487671971321106
			}
		}
	],
	"meshes":[
		{
			"name":"Mesh.002",
			"primitives":[
				{
					"attributes":{
						"POSITION":0,
						"NORMAL":1,
						"TEXCOORD_0":2
					},
					"indices":3,
					"material":0
				}
			]
		}
	],
	"textures":[
		{
			"sampler":0,
			"source":0
		}
	],
	"images":[
		{
			"mimeType":"image/jpeg",
			"name":"tex_elemental",
			"uri":"tex_elemental.jpg"
		}
	],
	"accessors":[
		{
			"bufferView":0,
			"componentType":5126,
			"count":4699,
			"max":[
				101.60499572753906,
				73.44331359863281,
				-7.62939453125e-06
			],
			"min":[
				-101.60504150390625,
				-73.44327545166016,
				-245.01968383789062
			],
			"type":"VEC3"
		},
		{
			"bufferView":1,
			"componentType":5126,
			"count":4699,
			"type":"VEC3"
		},
		{
			"bufferView":2,
			"componentType":5126,
			"count":4699,
			"type":"VEC2"
		},
		{
			"bufferView":3,
			"componentType":5123,
			"count":8778,
			"type":"SCALAR"
		}
	],
	"bufferViews":[
		{
			"buffer":0,
			"byteLength":56388,
			"byteOffset":0,
			"target":34962
		},
		{
			"buffer":0,
			"byteLength":56388,
			"byteOffset":56388,
			"target":34962
		},
		{
			"buffer":0,
			"byteLength":37592,
			"byteOffset":112776,
			"target":34962
		},
		{
			"buffer":0,
			"byteLength":17556,
			"byteOffset":150368,
			"target":34963
		}
	],
	"samplers":[
		{
			"magFilter":9729,
			"minFilter":9987
		}
	],
	"buffers":[
		{
			"byteLength":167924,
			"uri":"fire-monster.bin"
		}
	]
}
