{
	"asset":{
		"generator":"Khronos glTF Blender I/O v4.0.44",
		"version":"2.0"
	},
	"extensionsUsed":[
		"KHR_materials_specular",
		"KHR_materials_ior",
		"KHR_lights_punctual"
	],
	"extensionsRequired":[
		"KHR_lights_punctual"
	],
	"extensions":{
		"KHR_lights_punctual":{
			"lights":[
				{
					"color":[
						1,
						1,
						1
					],
					"intensity":108.70282613176452,
					"type":"point",
					"name":"Point"
				}
			]
		}
	},
	"scene":0,
	"scenes":[
		{
			"name":"Scene",
			"nodes":[
				5,
				6
			]
		}
	],
	"nodes":[
		{
			"name":"joint1",
			"rotation":[
				2.3283774908122723e-10,
				2.3283067140944524e-10,
				1.8189894035458565e-12,
				1
			],
			"scale":[
				0.9999999403953552,
				1,
				1
			],
			"translation":[
				-4.153698682785034e-07,
				50.730499267578125,
				0.43482279777526855
			]
		},
		{
			"children":[
				0
			],
			"name":"joint2",
			"rotation":[
				0.002465461613610387,
				-2.3283139305441125e-10,
				-1.6940506743853297e-17,
				0.9999969601631165
			],
			"scale":[
				0.9999999403953552,
				1,
				0.9999999403953552
			],
			"translation":[
				-1.862644793959589e-08,
				33.806365966796875,
				-0.1812010109424591
			]
		},
		{
			"children":[
				1
			],
			"name":"joint3",
			"rotation":[
				-0.7071067690849304,
				-3.2927227611168064e-10,
				3.2927227611168064e-10,
				0.7071067690849304
			],
			"scale":[
				0.9999999403953552,
				1,
				0.9999999403953552
			],
			"translation":[
				5.03155517578125,
				-2.058608055114746,
				-21.697967529296875
			]
		},
		{
			"mesh":0,
			"name":"Fire",
			"skin":0
		},
		{
			"extensions":{
				"KHR_lights_punctual":{
					"light":0
				}
			},
			"name":"Point",
			"rotation":[
				-0.7038329839706421,
				-0.7103655338287354,
				0,
				3.861454089815197e-08
			],
			"scale":[
				99.99998474121094,
				99.9999771118164,
				99.99999237060547
			],
			"translation":[
				3.9049293994903564,
				4.091029167175293,
				-130.21588134765625
			]
		},
		{
			"children":[
				3,
				4,
				2
			],
			"name":"Armature",
			"rotation":[
				0.4976850748062134,
				0.5023043751716614,
				-0.5023043155670166,
				0.49768510460853577
			],
			"scale":[
				0.009999999776482582,
				0.009999999776482582,
				0.009999999776482582
			],
			"translation":[
				0,
				0.07864023745059967,
				0.04503048211336136
			]
		},
		{
			"mesh":1,
			"name":"CampFire_Wood",
			"rotation":[
				0.7071068286895752,
				0,
				0,
				0.7071068286895752
			],
			"scale":[
				0.009999999776482582,
				0.009999999776482582,
				0.009999999776482582
			],
			"translation":[
				0,
				0.15998953580856323,
				0
			]
		}
	],
	"animations":[
		{
			"channels":[
				{
					"sampler":0,
					"target":{
						"node":2,
						"path":"translation"
					}
				},
				{
					"sampler":1,
					"target":{
						"node":2,
						"path":"rotation"
					}
				},
				{
					"sampler":2,
					"target":{
						"node":2,
						"path":"scale"
					}
				},
				{
					"sampler":3,
					"target":{
						"node":1,
						"path":"translation"
					}
				},
				{
					"sampler":4,
					"target":{
						"node":1,
						"path":"rotation"
					}
				},
				{
					"sampler":5,
					"target":{
						"node":1,
						"path":"scale"
					}
				},
				{
					"sampler":6,
					"target":{
						"node":0,
						"path":"translation"
					}
				},
				{
					"sampler":7,
					"target":{
						"node":0,
						"path":"rotation"
					}
				},
				{
					"sampler":8,
					"target":{
						"node":0,
						"path":"scale"
					}
				}
			],
			"name":"Armature|Take 001|BaseLayer",
			"samplers":[
				{
					"input":13,
					"interpolation":"STEP",
					"output":14
				},
				{
					"input":13,
					"interpolation":"STEP",
					"output":15
				},
				{
					"input":16,
					"interpolation":"LINEAR",
					"output":17
				},
				{
					"input":16,
					"interpolation":"LINEAR",
					"output":18
				},
				{
					"input":16,
					"interpolation":"LINEAR",
					"output":19
				},
				{
					"input":13,
					"interpolation":"STEP",
					"output":20
				},
				{
					"input":16,
					"interpolation":"LINEAR",
					"output":21
				},
				{
					"input":13,
					"interpolation":"LINEAR",
					"output":22
				},
				{
					"input":16,
					"interpolation":"LINEAR",
					"output":23
				}
			]
		},
		{
			"channels":[
				{
					"sampler":0,
					"target":{
						"node":2,
						"path":"translation"
					}
				},
				{
					"sampler":1,
					"target":{
						"node":2,
						"path":"rotation"
					}
				},
				{
					"sampler":2,
					"target":{
						"node":2,
						"path":"scale"
					}
				},
				{
					"sampler":3,
					"target":{
						"node":1,
						"path":"translation"
					}
				},
				{
					"sampler":4,
					"target":{
						"node":1,
						"path":"rotation"
					}
				},
				{
					"sampler":5,
					"target":{
						"node":1,
						"path":"scale"
					}
				},
				{
					"sampler":6,
					"target":{
						"node":0,
						"path":"translation"
					}
				},
				{
					"sampler":7,
					"target":{
						"node":0,
						"path":"rotation"
					}
				},
				{
					"sampler":8,
					"target":{
						"node":0,
						"path":"scale"
					}
				}
			],
			"name":"Armature|Take 001|BaseLayer.001",
			"samplers":[
				{
					"input":24,
					"interpolation":"STEP",
					"output":25
				},
				{
					"input":24,
					"interpolation":"STEP",
					"output":26
				},
				{
					"input":27,
					"interpolation":"LINEAR",
					"output":28
				},
				{
					"input":27,
					"interpolation":"LINEAR",
					"output":29
				},
				{
					"input":27,
					"interpolation":"LINEAR",
					"output":30
				},
				{
					"input":24,
					"interpolation":"STEP",
					"output":31
				},
				{
					"input":27,
					"interpolation":"LINEAR",
					"output":32
				},
				{
					"input":24,
					"interpolation":"STEP",
					"output":33
				},
				{
					"input":27,
					"interpolation":"LINEAR",
					"output":34
				}
			]
		}
	],
	"materials":[
		{
			"doubleSided":true,
			"emissiveFactor":[
				1,
				1,
				1
			],
			"emissiveTexture":{
				"index":0
			},
			"extensions":{
				"KHR_materials_specular":{
					"specularColorFactor":[
						2.0,
						2.0,
						2.0
					]
				},
				"KHR_materials_ior":{
					"ior":1.4500000476837158
				}
			},
			"name":"M_Fire",
			"pbrMetallicRoughness":{
				"baseColorTexture":{
					"index":1
				},
				"metallicRoughnessTexture":{
					"index":2
				}
			}
		},
		{
			"doubleSided":true,
			"extensions":{
				"KHR_materials_specular":{
					"specularColorFactor":[
						2.0,
						2.0,
						2.0
					]
				},
				"KHR_materials_ior":{
					"ior":1.4500000476837158
				}
			},
			"name":"M_LogsFire",
			"pbrMetallicRoughness":{
				"baseColorTexture":{
					"index":3
				},
				"metallicRoughnessTexture":{
					"index":4
				}
			}
		}
	],
	"meshes":[
		{
			"name":"Mesh.004",
			"primitives":[
				{
					"attributes":{
						"POSITION":0,
						"NORMAL":1,
						"TEXCOORD_0":2,
						"TANGENT":3,
						"JOINTS_0":4,
						"WEIGHTS_0":5
					},
					"indices":6,
					"material":0
				}
			]
		},
		{
			"name":"Mesh.005",
			"primitives":[
				{
					"attributes":{
						"POSITION":8,
						"NORMAL":9,
						"TEXCOORD_0":10,
						"TANGENT":11
					},
					"indices":12,
					"material":1
				}
			]
		}
	],
	"textures":[
		{
			"sampler":0,
			"source":0
		},
		{
			"sampler":0,
			"source":1
		},
		{
			"sampler":0,
			"source":2
		},
		{
			"sampler":0,
			"source":3
		},
		{
			"sampler":0,
			"source":4
		}
	],
	"images":[
		{
			"mimeType":"image/png",
			"name":"M_Fire_Emissive",
			"uri":"M_Fire_Emissive.png"
		},
		{
			"mimeType":"image/png",
			"name":"M_Fire_Base_color",
			"uri":"M_Fire_Base_color.png"
		},
		{
			"mimeType":"image/png",
			"name":"M_Fire_Metallic-M_Fire_Roughness",
			"uri":"M_Fire_Metallic-M_Fire_Roughness.png"
		},
		{
			"mimeType":"image/png",
			"name":"M_Log_Base_color",
			"uri":"M_Log_Base_color.png"
		},
		{
			"mimeType":"image/png",
			"name":"M_Log_Metallic.png-M_Log_Roughness.png",
			"uri":"M_Log_Metallic_png-M_Log_Roughness_png.png"
		}
	],
	"skins":[
		{
			"inverseBindMatrices":7,
			"joints":[
				2,
				1,
				0
			],
			"name":"Armature"
		}
	],
	"accessors":[
		{
			"bufferView":0,
			"componentType":5126,
			"count":422,
			"max":[
				0.258142352104187,
				1.1191117763519287,
				0.30086836218833923
			],
			"min":[
				-0.3532825708389282,
				0.24379649758338928,
				-0.31056374311447144
			],
			"type":"VEC3"
		},
		{
			"bufferView":1,
			"componentType":5126,
			"count":422,
			"type":"VEC3"
		},
		{
			"bufferView":2,
			"componentType":5126,
			"count":422,
			"type":"VEC2"
		},
		{
			"bufferView":3,
			"componentType":5126,
			"count":422,
			"type":"VEC4"
		},
		{
			"bufferView":4,
			"componentType":5121,
			"count":422,
			"type":"VEC4"
		},
		{
			"bufferView":5,
			"componentType":5126,
			"count":422,
			"type":"VEC4"
		},
		{
			"bufferView":6,
			"componentType":5123,
			"count":2280,
			"type":"SCALAR"
		},
		{
			"bufferView":7,
			"componentType":5126,
			"count":3,
			"type":"MAT4"
		},
		{
			"bufferView":8,
			"componentType":5126,
			"count":1520,
			"max":[
				36.55665588378906,
				37.80715560913086,
				11.351350784301758
			],
			"min":[
				-34.26719665527344,
				-34.65761184692383,
				-68.49620056152344
			],
			"type":"VEC3"
		},
		{
			"bufferView":9,
			"componentType":5126,
			"count":1520,
			"type":"VEC3"
		},
		{
			"bufferView":10,
			"componentType":5126,
			"count":1520,
			"type":"VEC2"
		},
		{
			"bufferView":11,
			"componentType":5126,
			"count":1520,
			"type":"VEC4"
		},
		{
			"bufferView":12,
			"componentType":5123,
			"count":4350,
			"type":"SCALAR"
		},
		{
			"bufferView":13,
			"componentType":5126,
			"count":2,
			"max":[
				8.375
			],
			"min":[
				0.041666666666666664
			],
			"type":"SCALAR"
		},
		{
			"bufferView":14,
			"componentType":5126,
			"count":2,
			"type":"VEC3"
		},
		{
			"bufferView":15,
			"componentType":5126,
			"count":2,
			"type":"VEC4"
		},
		{
			"bufferView":16,
			"componentType":5126,
			"count":201,
			"max":[
				8.375
			],
			"min":[
				0.041666666666666664
			],
			"type":"SCALAR"
		},
		{
			"bufferView":17,
			"componentType":5126,
			"count":201,
			"type":"VEC3"
		},
		{
			"bufferView":18,
			"componentType":5126,
			"count":201,
			"type":"VEC3"
		},
		{
			"bufferView":19,
			"componentType":5126,
			"count":201,
			"type":"VEC4"
		},
		{
			"bufferView":20,
			"componentType":5126,
			"count":2,
			"type":"VEC3"
		},
		{
			"bufferView":21,
			"componentType":5126,
			"count":201,
			"type":"VEC3"
		},
		{
			"bufferView":22,
			"componentType":5126,
			"count":2,
			"type":"VEC4"
		},
		{
			"bufferView":23,
			"componentType":5126,
			"count":201,
			"type":"VEC3"
		},
		{
			"bufferView":24,
			"componentType":5126,
			"count":2,
			"max":[
				0.8333333333333334
			],
			"min":[
				0.041666666666666664
			],
			"type":"SCALAR"
		},
		{
			"bufferView":25,
			"componentType":5126,
			"count":2,
			"type":"VEC3"
		},
		{
			"bufferView":26,
			"componentType":5126,
			"count":2,
			"type":"VEC4"
		},
		{
			"bufferView":27,
			"componentType":5126,
			"count":20,
			"max":[
				0.8333333333333334
			],
			"min":[
				0.041666666666666664
			],
			"type":"SCALAR"
		},
		{
			"bufferView":28,
			"componentType":5126,
			"count":20,
			"type":"VEC3"
		},
		{
			"bufferView":29,
			"componentType":5126,
			"count":20,
			"type":"VEC3"
		},
		{
			"bufferView":30,
			"componentType":5126,
			"count":20,
			"type":"VEC4"
		},
		{
			"bufferView":31,
			"componentType":5126,
			"count":2,
			"type":"VEC3"
		},
		{
			"bufferView":32,
			"componentType":5126,
			"count":20,
			"type":"VEC3"
		},
		{
			"bufferView":33,
			"componentType":5126,
			"count":2,
			"type":"VEC4"
		},
		{
			"bufferView":34,
			"componentType":5126,
			"count":20,
			"type":"VEC3"
		}
	],
	"bufferViews":[
		{
			"buffer":0,
			"byteLength":5064,
			"byteOffset":0,
			"target":34962
		},
		{
			"buffer":0,
			"byteLength":5064,
			"byteOffset":5064,
			"target":34962
		},
		{
			"buffer":0,
			"byteLength":3376,
			"byteOffset":10128,
			"target":34962
		},
		{
			"buffer":0,
			"byteLength":6752,
			"byteOffset":13504,
			"target":34962
		},
		{
			"buffer":0,
			"byteLength":1688,
			"byteOffset":20256,
			"target":34962
		},
		{
			"buffer":0,
			"byteLength":6752,
			"byteOffset":21944,
			"target":34962
		},
		{
			"buffer":0,
			"byteLength":4560,
			"byteOffset":28696,
			"target":34963
		},
		{
			"buffer":0,
			"byteLength":192,
			"byteOffset":33256
		},
		{
			"buffer":0,
			"byteLength":18240,
			"byteOffset":33448,
			"target":34962
		},
		{
			"buffer":0,
			"byteLength":18240,
			"byteOffset":51688,
			"target":34962
		},
		{
			"buffer":0,
			"byteLength":12160,
			"byteOffset":69928,
			"target":34962
		},
		{
			"buffer":0,
			"byteLength":24320,
			"byteOffset":82088,
			"target":34962
		},
		{
			"buffer":0,
			"byteLength":8700,
			"byteOffset":106408,
			"target":34963
		},
		{
			"buffer":0,
			"byteLength":8,
			"byteOffset":115108
		},
		{
			"buffer":0,
			"byteLength":24,
			"byteOffset":115116
		},
		{
			"buffer":0,
			"byteLength":32,
			"byteOffset":115140
		},
		{
			"buffer":0,
			"byteLength":804,
			"byteOffset":115172
		},
		{
			"buffer":0,
			"byteLength":2412,
			"byteOffset":115976
		},
		{
			"buffer":0,
			"byteLength":2412,
			"byteOffset":118388
		},
		{
			"buffer":0,
			"byteLength":3216,
			"byteOffset":120800
		},
		{
			"buffer":0,
			"byteLength":24,
			"byteOffset":124016
		},
		{
			"buffer":0,
			"byteLength":2412,
			"byteOffset":124040
		},
		{
			"buffer":0,
			"byteLength":32,
			"byteOffset":126452
		},
		{
			"buffer":0,
			"byteLength":2412,
			"byteOffset":126484
		},
		{
			"buffer":0,
			"byteLength":8,
			"byteOffset":128896
		},
		{
			"buffer":0,
			"byteLength":24,
			"byteOffset":128904
		},
		{
			"buffer":0,
			"byteLength":32,
			"byteOffset":128928
		},
		{
			"buffer":0,
			"byteLength":80,
			"byteOffset":128960
		},
		{
			"buffer":0,
			"byteLength":240,
			"byteOffset":129040
		},
		{
			"buffer":0,
			"byteLength":240,
			"byteOffset":129280
		},
		{
			"buffer":0,
			"byteLength":320,
			"byteOffset":129520
		},
		{
			"buffer":0,
			"byteLength":24,
			"byteOffset":129840
		},
		{
			"buffer":0,
			"byteLength":240,
			"byteOffset":129864
		},
		{
			"buffer":0,
			"byteLength":32,
			"byteOffset":130104
		},
		{
			"buffer":0,
			"byteLength":240,
			"byteOffset":130136
		}
	],
	"samplers":[
		{
			"magFilter":9729,
			"minFilter":9987
		}
	],
	"buffers":[
		{
			"byteLength":130376,
			"uri":"Fire.bin"
		}
	]
}
