{
	"asset":{
		"generator":"Khronos glTF Blender I/O v4.0.44",
		"version":"2.0"
	},
	"extensionsUsed":[
		"KHR_materials_specular",
		"KHR_materials_ior"
	],
	"scene":0,
	"scenes":[
		{
			"name":"Scene",
			"nodes":[
				0
			]
		}
	],
	"nodes":[
		{
			"mesh":0,
			"name":"Wood",
			"rotation":[
				0.7071068286895752,
				0,
				0,
				0.7071068286895752
			],
			"scale":[
				0.009999999776482582,
				0.009999999776482582,
				0.009999999776482582
			]
		}
	],
	"materials":[
		{
			"doubleSided":true,
			"extensions":{
				"KHR_materials_specular":{
					"specularColorFactor":[
						2.0,
						2.0,
						2.0
					]
				},
				"KHR_materials_ior":{
					"ior":1.4500000476837158
				}
			},
			"name":"M_Log",
			"normalTexture":{
				"index":0
			},
			"pbrMetallicRoughness":{
				"baseColorTexture":{
					"index":1
				},
				"metallicRoughnessTexture":{
					"index":2
				}
			}
		}
	],
	"meshes":[
		{
			"name":"Mesh.008",
			"primitives":[
				{
					"attributes":{
						"POSITION":0,
						"NORMAL":1,
						"TEXCOORD_0":2
					},
					"indices":3,
					"material":0
				}
			]
		}
	],
	"textures":[
		{
			"sampler":0,
			"source":0
		},
		{
			"sampler":0,
			"source":1
		},
		{
			"sampler":0,
			"source":2
		}
	],
	"images":[
		{
			"mimeType":"image/png",
			"name":"M_Log_Normal_DirectX",
			"uri":"M_Log_Normal_DirectX.png"
		},
		{
			"mimeType":"image/png",
			"name":"M_Log_Base_color",
			"uri":"M_Log_Base_color.png"
		},
		{
			"mimeType":"image/png",
			"name":"M_Log_Metallic-M_Log_Roughness",
			"uri":"M_Log_Metallic-M_Log_Roughness.png"
		}
	],
	"accessors":[
		{
			"bufferView":0,
			"componentType":5126,
			"count":304,
			"max":[
				53.02817153930664,
				21.44428253173828,
				11.856048583984375
			],
			"min":[
				-48.81532669067383,
				-11.681161880493164,
				-11.856033325195312
			],
			"type":"VEC3"
		},
		{
			"bufferView":1,
			"componentType":5126,
			"count":304,
			"type":"VEC3"
		},
		{
			"bufferView":2,
			"componentType":5126,
			"count":304,
			"type":"VEC2"
		},
		{
			"bufferView":3,
			"componentType":5123,
			"count":870,
			"type":"SCALAR"
		}
	],
	"bufferViews":[
		{
			"buffer":0,
			"byteLength":3648,
			"byteOffset":0,
			"target":34962
		},
		{
			"buffer":0,
			"byteLength":3648,
			"byteOffset":3648,
			"target":34962
		},
		{
			"buffer":0,
			"byteLength":2432,
			"byteOffset":7296,
			"target":34962
		},
		{
			"buffer":0,
			"byteLength":1740,
			"byteOffset":9728,
			"target":34963
		}
	],
	"samplers":[
		{
			"magFilter":9729,
			"minFilter":9987
		}
	],
	"buffers":[
		{
			"byteLength":11468,
			"uri":"Log.bin"
		}
	]
}
