{
	"asset":{
		"generator":"Khronos glTF Blender I/O v4.0.44",
		"version":"2.0"
	},
	"extensionsUsed":[
		"KHR_materials_specular",
		"KHR_materials_ior"
	],
	"scene":0,
	"scenes":[
		{
			"name":"Scene",
			"nodes":[
				0
			]
		}
	],
	"nodes":[
		{
			"mesh":0,
			"name":"TreeGroup",
			"translation":[
				0,
				1.714004635810852,
				0
			]
		}
	],
	"materials":[
		{
			"doubleSided":true,
			"extensions":{
				"KHR_materials_specular":{
					"specularColorFactor":[
						2.0,
						2.0,
						2.0
					]
				},
				"KHR_materials_ior":{
					"ior":1.4500000476837158
				}
			},
			"name":"M_TreeTrunk",
			"normalTexture":{
				"index":0
			},
			"pbrMetallicRoughness":{
				"baseColorTexture":{
					"index":1
				},
				"metallicRoughnessTexture":{
					"index":2
				}
			}
		},
		{
			"doubleSided":true,
			"extensions":{
				"KHR_materials_specular":{
					"specularColorFactor":[
						2.0,
						2.0,
						2.0
					]
				},
				"KHR_materials_ior":{
					"ior":1.4500000476837158
				}
			},
			"name":"M_TreeLeaves",
			"normalTexture":{
				"index":3
			},
			"pbrMetallicRoughness":{
				"baseColorTexture":{
					"index":4
				},
				"metallicRoughnessTexture":{
					"index":5
				}
			}
		}
	],
	"meshes":[
		{
			"name":"Mesh.002",
			"primitives":[
				{
					"attributes":{
						"POSITION":0,
						"NORMAL":1,
						"TEXCOORD_0":2,
						"TANGENT":3
					},
					"indices":4,
					"material":0
				},
				{
					"attributes":{
						"POSITION":5,
						"NORMAL":6,
						"TEXCOORD_0":7,
						"TANGENT":8
					},
					"indices":9,
					"material":1
				}
			]
		}
	],
	"textures":[
		{
			"sampler":0,
			"source":0
		},
		{
			"sampler":0,
			"source":1
		},
		{
			"sampler":0,
			"source":2
		},
		{
			"sampler":0,
			"source":3
		},
		{
			"sampler":0,
			"source":4
		},
		{
			"sampler":0,
			"source":5
		}
	],
	"images":[
		{
			"mimeType":"image/png",
			"name":"M_TreeTrunk_Normal_DirectX",
			"uri":"M_TreeTrunk_Normal_DirectX.png"
		},
		{
			"mimeType":"image/png",
			"name":"M_TreeTrunk_Base_color",
			"uri":"M_TreeTrunk_Base_color.png"
		},
		{
			"mimeType":"image/png",
			"name":"M_TreeTrunk_Metallic.png-M_TreeTrunk_Roughness.png",
			"uri":"M_TreeTrunk_Metallic_png-M_TreeTrunk_Roughness_png.png"
		},
		{
			"mimeType":"image/png",
			"name":"M_TreeLeaves_Normal_DirectX",
			"uri":"M_TreeLeaves_Normal_DirectX.png"
		},
		{
			"mimeType":"image/png",
			"name":"M_TreeLeaves_Base_color",
			"uri":"M_TreeLeaves_Base_color.png"
		},
		{
			"mimeType":"image/png",
			"name":"M_TreeLeaves_Metallic.png-M_TreeLeaves_Roughness.png",
			"uri":"M_TreeLeaves_Metallic_png-M_TreeLeaves_Roughness_png.png"
		}
	],
	"accessors":[
		{
			"bufferView":0,
			"componentType":5126,
			"count":173052,
			"max":[
				47.23050308227539,
				0.8617781400680542,
				47.43339538574219
			],
			"min":[
				-49.92223358154297,
				-3.206943988800049,
				-45.048683166503906
			],
			"type":"VEC3"
		},
		{
			"bufferView":1,
			"componentType":5126,
			"count":173052,
			"type":"VEC3"
		},
		{
			"bufferView":2,
			"componentType":5126,
			"count":173052,
			"type":"VEC2"
		},
		{
			"bufferView":3,
			"componentType":5126,
			"count":173052,
			"type":"VEC4"
		},
		{
			"bufferView":4,
			"componentType":5125,
			"count":567720,
			"type":"SCALAR"
		},
		{
			"bufferView":5,
			"componentType":5126,
			"count":705888,
			"max":[
				46.94322204589844,
				5.030142307281494,
				47.43902587890625
			],
			"min":[
				-49.27714538574219,
				-1.8959193229675293,
				-44.81898498535156
			],
			"type":"VEC3"
		},
		{
			"bufferView":6,
			"componentType":5126,
			"count":705888,
			"type":"VEC3"
		},
		{
			"bufferView":7,
			"componentType":5126,
			"count":705888,
			"type":"VEC2"
		},
		{
			"bufferView":8,
			"componentType":5126,
			"count":705888,
			"type":"VEC4"
		},
		{
			"bufferView":9,
			"componentType":5125,
			"count":1997280,
			"type":"SCALAR"
		}
	],
	"bufferViews":[
		{
			"buffer":0,
			"byteLength":2076624,
			"byteOffset":0,
			"target":34962
		},
		{
			"buffer":0,
			"byteLength":2076624,
			"byteOffset":2076624,
			"target":34962
		},
		{
			"buffer":0,
			"byteLength":1384416,
			"byteOffset":4153248,
			"target":34962
		},
		{
			"buffer":0,
			"byteLength":2768832,
			"byteOffset":5537664,
			"target":34962
		},
		{
			"buffer":0,
			"byteLength":2270880,
			"byteOffset":8306496,
			"target":34963
		},
		{
			"buffer":0,
			"byteLength":8470656,
			"byteOffset":10577376,
			"target":34962
		},
		{
			"buffer":0,
			"byteLength":8470656,
			"byteOffset":19048032,
			"target":34962
		},
		{
			"buffer":0,
			"byteLength":5647104,
			"byteOffset":27518688,
			"target":34962
		},
		{
			"buffer":0,
			"byteLength":11294208,
			"byteOffset":33165792,
			"target":34962
		},
		{
			"buffer":0,
			"byteLength":7989120,
			"byteOffset":44460000,
			"target":34963
		}
	],
	"samplers":[
		{
			"magFilter":9729,
			"minFilter":9987
		}
	],
	"buffers":[
		{
			"byteLength":52449120,
			"uri":"TreeGroup.bin"
		}
	]
}
