{
	"asset":{
		"generator":"Khronos glTF Blender I/O v4.0.44",
		"version":"2.0"
	},
	"extensionsUsed":[
		"KHR_materials_specular",
		"KHR_materials_ior"
	],
	"scene":0,
	"scenes":[
		{
			"name":"Scene",
			"nodes":[
				0,
				1,
				2,
				3,
				4,
				5,
				6,
				7,
				8,
				9,
				10,
				11,
				12,
				13
			]
		}
	],
	"nodes":[
		{
			"mesh":0,
			"name":"CampeFire_Base",
			"rotation":[
				0.7071068286895752,
				0,
				0,
				0.7071068286895752
			],
			"scale":[
				0.009999999776482582,
				0.009999999776482582,
				0.009999999776482582
			],
			"translation":[
				8.270354270935059,
				0.08307663351297379,
				0
			]
		},
		{
			"mesh":0,
			"name":"CampeFire_Base.001",
			"rotation":[
				0.7071068286895752,
				0,
				0,
				0.7071068286895752
			],
			"scale":[
				0.009999999776482582,
				0.009999999776482582,
				0.009999999776482582
			],
			"translation":[
				-7.786476135253906,
				0.08307663351297379,
				-0.08578044176101685
			]
		},
		{
			"mesh":0,
			"name":"CampeFire_Base.003",
			"rotation":[
				0.7071068286895752,
				0,
				0,
				0.7071068286895752
			],
			"scale":[
				0.009999999776482582,
				0.009999999776482582,
				0.009999999776482582
			],
			"translation":[
				-0.010613560676574707,
				0.0838792473077774,
				7.175636291503906
			]
		},
		{
			"mesh":0,
			"name":"CampeFire_Base.004",
			"rotation":[
				0.7071068286895752,
				0,
				0,
				0.7071068286895752
			],
			"scale":[
				0.009999999776482582,
				0.009999999776482582,
				0.009999999776482582
			],
			"translation":[
				-0.010613560676574707,
				0.07831676304340363,
				-7.561661720275879
			]
		},
		{
			"mesh":1,
			"name":"FirePit_Main",
			"rotation":[
				0.7071068286895752,
				0,
				0,
				0.7071068286895752
			],
			"scale":[
				0.009999999776482582,
				0.009999999776482582,
				0.009999999776482582
			],
			"translation":[
				0,
				-0.05315443500876427,
				0
			]
		},
		{
			"mesh":2,
			"name":"Terrain",
			"rotation":[
				0.7071068286895752,
				0,
				0,
				0.7071068286895752
			],
			"scale":[
				0.009999999776482582,
				0.009999999776482582,
				0.009999999776482582
			],
			"translation":[
				-0.01104755699634552,
				0.030637243762612343,
				0.029762908816337585
			]
		},
		{
			"mesh":0,
			"name":"CampeFire_Base.002",
			"rotation":[
				0.7071068286895752,
				0,
				0,
				0.7071068286895752
			],
			"scale":[
				0.009999999776482582,
				0.009999999776482582,
				0.009999999776482582
			],
			"translation":[
				22.45075798034668,
				0.08093161880970001,
				-0.09975903481245041
			]
		},
		{
			"mesh":0,
			"name":"CampeFire_Base.005",
			"rotation":[
				0.7071068286895752,
				0,
				0,
				0.7071068286895752
			],
			"scale":[
				0.009999999776482582,
				0.009999999776482582,
				0.009999999776482582
			],
			"translation":[
				-0.010613560676574707,
				0.07739295065402985,
				22.078170776367188
			]
		},
		{
			"mesh":0,
			"name":"CampeFire_Base.006",
			"rotation":[
				0.7071068286895752,
				0,
				0,
				0.7071068286895752
			],
			"scale":[
				0.009999999776482582,
				0.009999999776482582,
				0.009999999776482582
			],
			"translation":[
				-0.01654350757598877,
				0.07831691205501556,
				-23.181318283081055
			]
		},
		{
			"mesh":0,
			"name":"CampeFire_Base.007",
			"rotation":[
				0.7071068286895752,
				0,
				0,
				0.7071068286895752
			],
			"scale":[
				0.009999999776482582,
				0.009999999776482582,
				0.009999999776482582
			],
			"translation":[
				-19.9898681640625,
				0.08307663351297379,
				-0.08578044176101685
			]
		},
		{
			"mesh":0,
			"name":"CampeFire_Base.008",
			"rotation":[
				0.6589812636375427,
				-0.25640538334846497,
				0.2564053535461426,
				0.6589812636375427
			],
			"scale":[
				0.009999999776482582,
				0.009999999776482582,
				0.009999999776482582
			],
			"translation":[
				16.55645751953125,
				0.08093161880970001,
				14.60422134399414
			]
		},
		{
			"mesh":0,
			"name":"CampeFire_Base.009",
			"rotation":[
				0.6589812636375427,
				-0.25640538334846497,
				0.2564053535461426,
				0.6589812636375427
			],
			"scale":[
				0.009999999776482582,
				0.009999999776482582,
				0.009999999776482582
			],
			"translation":[
				-14.987434387207031,
				0.07739295065402985,
				15.76905345916748
			]
		},
		{
			"mesh":0,
			"name":"CampeFire_Base.010",
			"rotation":[
				0.6589812636375427,
				-0.25640538334846497,
				0.2564053535461426,
				0.6589812636375427
			],
			"scale":[
				0.009999999776482582,
				0.009999999776482582,
				0.009999999776482582
			],
			"translation":[
				15.597513198852539,
				0.07831691205501556,
				-17.59233856201172
			]
		},
		{
			"mesh":0,
			"name":"CampeFire_Base.011",
			"rotation":[
				0.6589812636375427,
				-0.25640538334846497,
				0.2564053535461426,
				0.6589812636375427
			],
			"scale":[
				0.009999999776482582,
				0.009999999776482582,
				0.009999999776482582
			],
			"translation":[
				-14.732802391052246,
				0.08307663351297379,
				-14.069622039794922
			]
		}
	],
	"materials":[
		{
			"doubleSided":true,
			"extensions":{
				"KHR_materials_specular":{
					"specularColorFactor":[
						2.0,
						2.0,
						2.0
					]
				},
				"KHR_materials_ior":{
					"ior":1.4500000476837158
				}
			},
			"name":"M_CFBase",
			"pbrMetallicRoughness":{
				"baseColorTexture":{
					"index":0
				},
				"metallicRoughnessTexture":{
					"index":1
				}
			}
		},
		{
			"doubleSided":true,
			"extensions":{
				"KHR_materials_specular":{
					"specularColorFactor":[
						2.0,
						2.0,
						2.0
					]
				},
				"KHR_materials_ior":{
					"ior":1.4500000476837158
				}
			},
			"name":"M_FirePitMain",
			"normalTexture":{
				"index":2
			},
			"pbrMetallicRoughness":{
				"baseColorTexture":{
					"index":3
				},
				"metallicRoughnessTexture":{
					"index":4
				}
			}
		},
		{
			"doubleSided":true,
			"extensions":{
				"KHR_materials_specular":{
					"specularFactor":0
				},
				"KHR_materials_ior":{
					"ior":1.4500000476837158
				}
			},
			"name":"M_GroundTile01",
			"normalTexture":{
				"index":5
			},
			"pbrMetallicRoughness":{
				"baseColorTexture":{
					"index":6
				},
				"metallicRoughnessTexture":{
					"index":7
				}
			}
		},
		{
			"doubleSided":true,
			"extensions":{
				"KHR_materials_specular":{
					"specularFactor":0
				},
				"KHR_materials_ior":{
					"ior":1.4500000476837158
				}
			},
			"name":"M_GroundTile02",
			"normalTexture":{
				"index":8
			},
			"pbrMetallicRoughness":{
				"baseColorTexture":{
					"index":9
				},
				"metallicRoughnessTexture":{
					"index":10
				}
			}
		}
	],
	"meshes":[
		{
			"name":"Mesh.009",
			"primitives":[
				{
					"attributes":{
						"POSITION":0,
						"NORMAL":1,
						"TEXCOORD_0":2,
						"TANGENT":3
					},
					"indices":4,
					"material":0
				}
			]
		},
		{
			"name":"Mesh.014",
			"primitives":[
				{
					"attributes":{
						"POSITION":5,
						"NORMAL":6,
						"TEXCOORD_0":7,
						"TANGENT":8
					},
					"indices":9,
					"material":1
				}
			]
		},
		{
			"name":"Mesh",
			"primitives":[
				{
					"attributes":{
						"POSITION":10,
						"NORMAL":11,
						"TEXCOORD_0":12,
						"TANGENT":13
					},
					"indices":14,
					"material":2
				},
				{
					"attributes":{
						"POSITION":15,
						"NORMAL":16,
						"TEXCOORD_0":17,
						"TANGENT":18
					},
					"indices":19,
					"material":3
				}
			]
		}
	],
	"textures":[
		{
			"sampler":0,
			"source":0
		},
		{
			"sampler":0,
			"source":1
		},
		{
			"sampler":0,
			"source":2
		},
		{
			"sampler":0,
			"source":3
		},
		{
			"sampler":0,
			"source":4
		},
		{
			"sampler":0,
			"source":5
		},
		{
			"sampler":0,
			"source":6
		},
		{
			"sampler":0,
			"source":7
		},
		{
			"sampler":0,
			"source":8
		},
		{
			"sampler":0,
			"source":9
		},
		{
			"sampler":0,
			"source":10
		}
	],
	"images":[
		{
			"mimeType":"image/png",
			"name":"M_CFBase_Base_color",
			"uri":"M_CFBase_Base_color.png"
		},
		{
			"mimeType":"image/png",
			"name":"M_CFBase_Metallic-M_CFBase_Roughness",
			"uri":"M_CFBase_Metallic-M_CFBase_Roughness.png"
		},
		{
			"mimeType":"image/png",
			"name":"M_FirePitMain_Normal_DirectX",
			"uri":"M_FirePitMain_Normal_DirectX.png"
		},
		{
			"mimeType":"image/png",
			"name":"M_FirePitMain_Base_color",
			"uri":"M_FirePitMain_Base_color.png"
		},
		{
			"mimeType":"image/png",
			"name":"M_FirePitMain_Metallic.png-M_FirePitMain_Roughness.png",
			"uri":"M_FirePitMain_Metallic_png-M_FirePitMain_Roughness_png.png"
		},
		{
			"mimeType":"image/png",
			"name":"M_GroundTile01_Normal_DirectX",
			"uri":"M_GroundTile01_Normal_DirectX.png"
		},
		{
			"mimeType":"image/png",
			"name":"M_GroundTile01_Base_color",
			"uri":"M_GroundTile01_Base_color.png"
		},
		{
			"mimeType":"image/png",
			"name":"M_GroundTile01_Metallic-M_GroundTile01_Roughness",
			"uri":"M_GroundTile01_Metallic-M_GroundTile01_Roughness.png"
		},
		{
			"mimeType":"image/png",
			"name":"M_GroundTile02_Normal_DirectX",
			"uri":"M_GroundTile02_Normal_DirectX.png"
		},
		{
			"mimeType":"image/png",
			"name":"M_GroundTile02_Base_color",
			"uri":"M_GroundTile02_Base_color.png"
		},
		{
			"mimeType":"image/png",
			"name":"M_GroundTile02_Metallic-M_GroundTile02_Roughness",
			"uri":"M_GroundTile02_Metallic-M_GroundTile02_Roughness.png"
		}
	],
	"accessors":[
		{
			"bufferView":0,
			"componentType":5126,
			"count":643,
			"max":[
				65.468505859375,
				71.48736572265625,
				14.356595993041992
			],
			"min":[
				-65.468505859375,
				-71.4873046875,
				-14.356595993041992
			],
			"type":"VEC3"
		},
		{
			"bufferView":1,
			"componentType":5126,
			"count":643,
			"type":"VEC3"
		},
		{
			"bufferView":2,
			"componentType":5126,
			"count":643,
			"type":"VEC2"
		},
		{
			"bufferView":3,
			"componentType":5126,
			"count":643,
			"type":"VEC4"
		},
		{
			"bufferView":4,
			"componentType":5123,
			"count":2328,
			"type":"SCALAR"
		},
		{
			"bufferView":5,
			"componentType":5126,
			"count":3259,
			"max":[
				128.61354064941406,
				121.40950012207031,
				-3.260589599609375
			],
			"min":[
				-121.15369415283203,
				-121.69861602783203,
				-55.7152099609375
			],
			"type":"VEC3"
		},
		{
			"bufferView":6,
			"componentType":5126,
			"count":3259,
			"type":"VEC3"
		},
		{
			"bufferView":7,
			"componentType":5126,
			"count":3259,
			"type":"VEC2"
		},
		{
			"bufferView":8,
			"componentType":5126,
			"count":3259,
			"type":"VEC4"
		},
		{
			"bufferView":9,
			"componentType":5123,
			"count":5172,
			"type":"SCALAR"
		},
		{
			"bufferView":10,
			"componentType":5126,
			"count":16,
			"max":[
				782.82275390625,
				782.8221435546875,
				0
			],
			"min":[
				-782.82275390625,
				-782.8221435546875,
				0
			],
			"type":"VEC3"
		},
		{
			"bufferView":11,
			"componentType":5126,
			"count":16,
			"type":"VEC3"
		},
		{
			"bufferView":12,
			"componentType":5126,
			"count":16,
			"type":"VEC2"
		},
		{
			"bufferView":13,
			"componentType":5126,
			"count":16,
			"type":"VEC4"
		},
		{
			"bufferView":14,
			"componentType":5123,
			"count":24,
			"type":"SCALAR"
		},
		{
			"bufferView":15,
			"componentType":5126,
			"count":560,
			"max":[
				4696.935546875,
				4696.93359375,
				0
			],
			"min":[
				-4696.935546875,
				-4696.93359375,
				0
			],
			"type":"VEC3"
		},
		{
			"bufferView":16,
			"componentType":5126,
			"count":560,
			"type":"VEC3"
		},
		{
			"bufferView":17,
			"componentType":5126,
			"count":560,
			"type":"VEC2"
		},
		{
			"bufferView":18,
			"componentType":5126,
			"count":560,
			"type":"VEC4"
		},
		{
			"bufferView":19,
			"componentType":5123,
			"count":840,
			"type":"SCALAR"
		}
	],
	"bufferViews":[
		{
			"buffer":0,
			"byteLength":7716,
			"byteOffset":0,
			"target":34962
		},
		{
			"buffer":0,
			"byteLength":7716,
			"byteOffset":7716,
			"target":34962
		},
		{
			"buffer":0,
			"byteLength":5144,
			"byteOffset":15432,
			"target":34962
		},
		{
			"buffer":0,
			"byteLength":10288,
			"byteOffset":20576,
			"target":34962
		},
		{
			"buffer":0,
			"byteLength":4656,
			"byteOffset":30864,
			"target":34963
		},
		{
			"buffer":0,
			"byteLength":39108,
			"byteOffset":35520,
			"target":34962
		},
		{
			"buffer":0,
			"byteLength":39108,
			"byteOffset":74628,
			"target":34962
		},
		{
			"buffer":0,
			"byteLength":26072,
			"byteOffset":113736,
			"target":34962
		},
		{
			"buffer":0,
			"byteLength":52144,
			"byteOffset":139808,
			"target":34962
		},
		{
			"buffer":0,
			"byteLength":10344,
			"byteOffset":191952,
			"target":34963
		},
		{
			"buffer":0,
			"byteLength":192,
			"byteOffset":202296,
			"target":34962
		},
		{
			"buffer":0,
			"byteLength":192,
			"byteOffset":202488,
			"target":34962
		},
		{
			"buffer":0,
			"byteLength":128,
			"byteOffset":202680,
			"target":34962
		},
		{
			"buffer":0,
			"byteLength":256,
			"byteOffset":202808,
			"target":34962
		},
		{
			"buffer":0,
			"byteLength":48,
			"byteOffset":203064,
			"target":34963
		},
		{
			"buffer":0,
			"byteLength":6720,
			"byteOffset":203112,
			"target":34962
		},
		{
			"buffer":0,
			"byteLength":6720,
			"byteOffset":209832,
			"target":34962
		},
		{
			"buffer":0,
			"byteLength":4480,
			"byteOffset":216552,
			"target":34962
		},
		{
			"buffer":0,
			"byteLength":8960,
			"byteOffset":221032,
			"target":34962
		},
		{
			"buffer":0,
			"byteLength":1680,
			"byteOffset":229992,
			"target":34963
		}
	],
	"samplers":[
		{
			"magFilter":9729,
			"minFilter":9987
		}
	],
	"buffers":[
		{
			"byteLength":231672,
			"uri":"Terrain01.bin"
		}
	]
}
