{
	"asset":{
		"generator":"Khronos glTF Blender I/O v4.0.44",
		"version":"2.0"
	},
	"extensionsUsed":[
		"KHR_materials_specular",
		"KHR_materials_ior"
	],
	"scene":0,
	"scenes":[
		{
			"name":"Scene",
			"nodes":[
				0,
				1,
				2,
				3,
				4,
				5,
				6
			]
		}
	],
	"nodes":[
		{
			"mesh":0,
			"name":"GnomeHouse02",
			"rotation":[
				0.6661465167999268,
				0.2371681183576584,
				-0.237168088555336,
				0.6661466360092163
			],
			"scale":[
				0.009999999776482582,
				0.009999999776482582,
				0.009999999776482582
			],
			"translation":[
				2.8989946842193604,
				0.9981704950332642,
				-3.3126280307769775
			]
		},
		{
			"mesh":1,
			"name":"GnomeHouse",
			"rotation":[
				0.2569456994533539,
				-0.6587707996368408,
				0.658770740032196,
				0.25694572925567627
			],
			"scale":[
				0.009999999776482582,
				0.009999999776482582,
				0.009999999776482582
			],
			"translation":[
				3.1689796447753906,
				-0.09981045126914978,
				3.2884771823883057
			]
		},
		{
			"mesh":2,
			"name":"DirtPile",
			"rotation":[
				0.7071068286895752,
				0,
				0,
				0.7071068286895752
			],
			"scale":[
				0.009999999776482582,
				0.009999999776482582,
				0.009999999776482582
			],
			"translation":[
				-2.7622106075286865,
				0.051819492131471634,
				3.1876511573791504
			]
		},
		{
			"mesh":2,
			"name":"DirtPile.001",
			"rotation":[
				0.7071068286895752,
				0,
				0,
				0.7071068286895752
			],
			"scale":[
				0.009999999776482582,
				0.009999999776482582,
				0.009999999776482582
			],
			"translation":[
				-2.970834255218506,
				0.051819492131471634,
				-3.2704832553863525
			]
		},
		{
			"mesh":2,
			"name":"DirtPile.002",
			"rotation":[
				0.7071068286895752,
				0,
				0,
				0.7071068286895752
			],
			"scale":[
				0.009999999776482582,
				0.009999999776482582,
				0.009999999776482582
			],
			"translation":[
				2.9967212677001953,
				0.051819492131471634,
				-3.5132863521575928
			]
		},
		{
			"mesh":2,
			"name":"DirtPile.003",
			"rotation":[
				0.7071068286895752,
				0,
				0,
				0.7071068286895752
			],
			"scale":[
				0.009999999776482582,
				0.009999999776482582,
				0.009999999776482582
			],
			"translation":[
				2.8845133781433105,
				0.02609279379248619,
				2.8983819484710693
			]
		},
		{
			"mesh":3,
			"name":"GnomeRockGarden",
			"rotation":[
				0.5147244334220886,
				-0.4848286211490631,
				0.4848285913467407,
				0.5147244930267334
			],
			"scale":[
				0.009999998845160007,
				0.009999998845160007,
				0.009999999776482582
			],
			"translation":[
				0.14306525886058807,
				0,
				-0.14699484407901764
			]
		}
	],
	"materials":[
		{
			"doubleSided":true,
			"extensions":{
				"KHR_materials_specular":{
					"specularColorFactor":[
						2.0,
						2.0,
						2.0
					]
				},
				"KHR_materials_ior":{
					"ior":1.4500000476837158
				}
			},
			"name":"M_GnomeH2Trunk",
			"pbrMetallicRoughness":{
				"baseColorTexture":{
					"index":0
				},
				"metallicRoughnessTexture":{
					"index":1
				}
			}
		},
		{
			"doubleSided":true,
			"extensions":{
				"KHR_materials_specular":{
					"specularColorFactor":[
						2.0,
						2.0,
						2.0
					]
				},
				"KHR_materials_ior":{
					"ior":1.4500000476837158
				}
			},
			"name":"M_GnomeH201",
			"pbrMetallicRoughness":{
				"baseColorTexture":{
					"index":2
				},
				"metallicRoughnessTexture":{
					"index":3
				}
			}
		},
		{
			"doubleSided":true,
			"extensions":{
				"KHR_materials_specular":{
					"specularColorFactor":[
						2.0,
						2.0,
						2.0
					]
				},
				"KHR_materials_ior":{
					"ior":1.4500000476837158
				}
			},
			"name":"M_GnomeH202",
			"pbrMetallicRoughness":{
				"baseColorTexture":{
					"index":4
				},
				"metallicRoughnessTexture":{
					"index":5
				}
			}
		},
		{
			"doubleSided":true,
			"extensions":{
				"KHR_materials_specular":{
					"specularFactor":0
				},
				"KHR_materials_ior":{
					"ior":1.4500000476837158
				}
			},
			"name":"M_GnomeHouse04",
			"normalTexture":{
				"index":6
			},
			"pbrMetallicRoughness":{
				"baseColorTexture":{
					"index":7
				},
				"metallicRoughnessTexture":{
					"index":8
				}
			}
		},
		{
			"doubleSided":true,
			"emissiveFactor":[
				1,
				1,
				1
			],
			"emissiveTexture":{
				"index":9
			},
			"extensions":{
				"KHR_materials_specular":{
					"specularFactor":0
				},
				"KHR_materials_ior":{
					"ior":1.4500000476837158
				}
			},
			"name":"M_GnomeHouse01",
			"normalTexture":{
				"index":10
			},
			"pbrMetallicRoughness":{
				"baseColorTexture":{
					"index":11
				},
				"metallicRoughnessTexture":{
					"index":12
				}
			}
		},
		{
			"doubleSided":true,
			"extensions":{
				"KHR_materials_specular":{
					"specularFactor":0
				},
				"KHR_materials_ior":{
					"ior":1.4500000476837158
				}
			},
			"name":"M_GnomeHouse03",
			"normalTexture":{
				"index":13
			},
			"pbrMetallicRoughness":{
				"baseColorTexture":{
					"index":14
				},
				"metallicRoughnessTexture":{
					"index":15
				}
			}
		},
		{
			"doubleSided":true,
			"emissiveFactor":[
				1,
				1,
				1
			],
			"emissiveTexture":{
				"index":16
			},
			"extensions":{
				"KHR_materials_specular":{
					"specularFactor":0
				},
				"KHR_materials_ior":{
					"ior":1.4500000476837158
				}
			},
			"name":"M_GnomeHouse02",
			"normalTexture":{
				"index":17
			},
			"pbrMetallicRoughness":{
				"baseColorTexture":{
					"index":18
				},
				"metallicRoughnessTexture":{
					"index":19
				}
			}
		},
		{
			"doubleSided":true,
			"extensions":{
				"KHR_materials_specular":{
					"specularColorFactor":[
						2.0,
						2.0,
						2.0
					]
				},
				"KHR_materials_ior":{
					"ior":1.4500000476837158
				}
			},
			"name":"M_DirtPile",
			"pbrMetallicRoughness":{
				"baseColorTexture":{
					"index":20
				},
				"metallicRoughnessTexture":{
					"index":21
				}
			}
		}
	],
	"meshes":[
		{
			"name":"Mesh.418",
			"primitives":[
				{
					"attributes":{
						"POSITION":0,
						"NORMAL":1,
						"TEXCOORD_0":2,
						"TANGENT":3
					},
					"indices":4,
					"material":0
				},
				{
					"attributes":{
						"POSITION":5,
						"NORMAL":6,
						"TEXCOORD_0":7,
						"TANGENT":8
					},
					"indices":9,
					"material":1
				},
				{
					"attributes":{
						"POSITION":10,
						"NORMAL":11,
						"TEXCOORD_0":12,
						"TANGENT":13
					},
					"indices":14,
					"material":2
				}
			]
		},
		{
			"name":"Mesh.001",
			"primitives":[
				{
					"attributes":{
						"POSITION":15,
						"NORMAL":16,
						"TEXCOORD_0":17
					},
					"indices":18,
					"material":3
				},
				{
					"attributes":{
						"POSITION":19,
						"NORMAL":20,
						"TEXCOORD_0":21
					},
					"indices":22,
					"material":4
				},
				{
					"attributes":{
						"POSITION":23,
						"NORMAL":24,
						"TEXCOORD_0":25
					},
					"indices":26,
					"material":5
				},
				{
					"attributes":{
						"POSITION":27,
						"NORMAL":28,
						"TEXCOORD_0":29
					},
					"indices":30,
					"material":6
				}
			]
		},
		{
			"name":"Mesh.412",
			"primitives":[
				{
					"attributes":{
						"POSITION":31,
						"NORMAL":32,
						"TEXCOORD_0":33,
						"TANGENT":34
					},
					"indices":35,
					"material":7
				}
			]
		},
		{
			"name":"Mesh.018",
			"primitives":[
				{
					"attributes":{
						"POSITION":36,
						"NORMAL":37,
						"TEXCOORD_0":38,
						"TANGENT":39
					},
					"indices":40,
					"material":3
				}
			]
		}
	],
	"textures":[
		{
			"sampler":0,
			"source":0
		},
		{
			"sampler":0,
			"source":1
		},
		{
			"sampler":0,
			"source":2
		},
		{
			"sampler":0,
			"source":3
		},
		{
			"sampler":0,
			"source":4
		},
		{
			"sampler":0,
			"source":5
		},
		{
			"sampler":0,
			"source":6
		},
		{
			"sampler":0,
			"source":7
		},
		{
			"sampler":0,
			"source":8
		},
		{
			"sampler":0,
			"source":9
		},
		{
			"sampler":0,
			"source":10
		},
		{
			"sampler":0,
			"source":11
		},
		{
			"sampler":0,
			"source":12
		},
		{
			"sampler":0,
			"source":13
		},
		{
			"sampler":0,
			"source":14
		},
		{
			"sampler":0,
			"source":15
		},
		{
			"sampler":0,
			"source":16
		},
		{
			"sampler":0,
			"source":10
		},
		{
			"sampler":0,
			"source":17
		},
		{
			"sampler":0,
			"source":18
		},
		{
			"sampler":0,
			"source":19
		},
		{
			"sampler":0,
			"source":20
		}
	],
	"images":[
		{
			"mimeType":"image/png",
			"name":"M_GnomeH2Trunk_Base_color",
			"uri":"M_GnomeH2Trunk_Base_color.png"
		},
		{
			"mimeType":"image/png",
			"name":"M_GnomeH2Trunk_Metallic-M_GnomeH2Trunk_Roughness",
			"uri":"M_GnomeH2Trunk_Metallic-M_GnomeH2Trunk_Roughness.png"
		},
		{
			"mimeType":"image/png",
			"name":"M_GnomeH201_Base_color",
			"uri":"M_GnomeH201_Base_color.png"
		},
		{
			"mimeType":"image/png",
			"name":"M_GnomeH201_Metallic-M_GnomeH201_Roughness",
			"uri":"M_GnomeH201_Metallic-M_GnomeH201_Roughness.png"
		},
		{
			"mimeType":"image/png",
			"name":"M_GnomeH202_Base_color",
			"uri":"M_GnomeH202_Base_color.png"
		},
		{
			"mimeType":"image/png",
			"name":"M_GnomeH202_Metallic-M_GnomeH202_Roughness",
			"uri":"M_GnomeH202_Metallic-M_GnomeH202_Roughness.png"
		},
		{
			"mimeType":"image/png",
			"name":"M_GnomeHouse04_Normal_DirectX",
			"uri":"M_GnomeHouse04_Normal_DirectX.png"
		},
		{
			"mimeType":"image/png",
			"name":"M_GnomeHouse04_Base_color",
			"uri":"M_GnomeHouse04_Base_color.png"
		},
		{
			"mimeType":"image/png",
			"name":"M_GnomeHouse04_Metallic-M_GnomeHouse04_Roughness",
			"uri":"M_GnomeHouse04_Metallic-M_GnomeHouse04_Roughness.png"
		},
		{
			"mimeType":"image/png",
			"name":"M_GnomeHouse01_Emissive",
			"uri":"M_GnomeHouse01_Emissive.png"
		},
		{
			"mimeType":"image/png",
			"name":"M_GnomeHouse02_Normal_DirectX",
			"uri":"M_GnomeHouse02_Normal_DirectX.png"
		},
		{
			"mimeType":"image/png",
			"name":"M_GnomeHouse01_Base_color",
			"uri":"M_GnomeHouse01_Base_color.png"
		},
		{
			"mimeType":"image/png",
			"name":"M_GnomeHouse01_Metallic-M_GnomeHouse01_Roughness",
			"uri":"M_GnomeHouse01_Metallic-M_GnomeHouse01_Roughness.png"
		},
		{
			"mimeType":"image/png",
			"name":"M_GnomeHouse03_Normal_DirectX",
			"uri":"M_GnomeHouse03_Normal_DirectX.png"
		},
		{
			"mimeType":"image/png",
			"name":"M_GnomeHouse03_Base_color",
			"uri":"M_GnomeHouse03_Base_color.png"
		},
		{
			"mimeType":"image/png",
			"name":"M_GnomeHouse03_Metallic-M_GnomeHouse03_Roughness",
			"uri":"M_GnomeHouse03_Metallic-M_GnomeHouse03_Roughness.png"
		},
		{
			"mimeType":"image/png",
			"name":"M_GnomeHouse02_Emissive",
			"uri":"M_GnomeHouse02_Emissive.png"
		},
		{
			"mimeType":"image/png",
			"name":"M_GnomeHouse02_Base_color",
			"uri":"M_GnomeHouse02_Base_color.png"
		},
		{
			"mimeType":"image/png",
			"name":"M_GnomeHouse02_Metallic-M_GnomeHouse02_Roughness",
			"uri":"M_GnomeHouse02_Metallic-M_GnomeHouse02_Roughness.png"
		},
		{
			"mimeType":"image/png",
			"name":"M_DirtPile_Base_color",
			"uri":"M_DirtPile_Base_color.png"
		},
		{
			"mimeType":"image/png",
			"name":"M_DirtPile_Metallic-M_DirtPile_Roughness",
			"uri":"M_DirtPile_Metallic-M_DirtPile_Roughness.png"
		}
	],
	"accessors":[
		{
			"bufferView":0,
			"componentType":5126,
			"count":499,
			"max":[
				235.98873901367188,
				182.10073852539062,
				152.78753662109375
			],
			"min":[
				-247.95285034179688,
				-215.91558837890625,
				33.28953552246094
			],
			"type":"VEC3"
		},
		{
			"bufferView":1,
			"componentType":5126,
			"count":499,
			"type":"VEC3"
		},
		{
			"bufferView":2,
			"componentType":5126,
			"count":499,
			"type":"VEC2"
		},
		{
			"bufferView":3,
			"componentType":5126,
			"count":499,
			"type":"VEC4"
		},
		{
			"bufferView":4,
			"componentType":5123,
			"count":2394,
			"type":"SCALAR"
		},
		{
			"bufferView":5,
			"componentType":5126,
			"count":360,
			"max":[
				95.27619934082031,
				85.07737731933594,
				99.52312469482422
			],
			"min":[
				-85.47366333007812,
				-100.82135009765625,
				-80.16510009765625
			],
			"type":"VEC3"
		},
		{
			"bufferView":6,
			"componentType":5126,
			"count":360,
			"type":"VEC3"
		},
		{
			"bufferView":7,
			"componentType":5126,
			"count":360,
			"type":"VEC2"
		},
		{
			"bufferView":8,
			"componentType":5126,
			"count":360,
			"type":"VEC4"
		},
		{
			"bufferView":9,
			"componentType":5123,
			"count":1740,
			"type":"SCALAR"
		},
		{
			"bufferView":10,
			"componentType":5126,
			"count":866,
			"max":[
				125.47378540039062,
				114.51844787597656,
				-24.394882202148438
			],
			"min":[
				-106.62966918945312,
				-119.09271240234375,
				-119.91506958007812
			],
			"type":"VEC3"
		},
		{
			"bufferView":11,
			"componentType":5126,
			"count":866,
			"type":"VEC3"
		},
		{
			"bufferView":12,
			"componentType":5126,
			"count":866,
			"type":"VEC2"
		},
		{
			"bufferView":13,
			"componentType":5126,
			"count":866,
			"type":"VEC4"
		},
		{
			"bufferView":14,
			"componentType":5123,
			"count":4440,
			"type":"SCALAR"
		},
		{
			"bufferView":15,
			"componentType":5126,
			"count":2131,
			"max":[
				184.76104736328125,
				246.1343536376953,
				-4.548794746398926
			],
			"min":[
				-186.43507385253906,
				-183.56173706054688,
				-36.29971694946289
			],
			"type":"VEC3"
		},
		{
			"bufferView":16,
			"componentType":5126,
			"count":2131,
			"type":"VEC3"
		},
		{
			"bufferView":17,
			"componentType":5126,
			"count":2131,
			"type":"VEC2"
		},
		{
			"bufferView":18,
			"componentType":5123,
			"count":7680,
			"type":"SCALAR"
		},
		{
			"bufferView":19,
			"componentType":5126,
			"count":4665,
			"max":[
				192.42724609375,
				205.45318603515625,
				5.824989318847656
			],
			"min":[
				-191.54273986816406,
				-57.5966682434082,
				-237.04962158203125
			],
			"type":"VEC3"
		},
		{
			"bufferView":20,
			"componentType":5126,
			"count":4665,
			"type":"VEC3"
		},
		{
			"bufferView":21,
			"componentType":5126,
			"count":4665,
			"type":"VEC2"
		},
		{
			"bufferView":22,
			"componentType":5123,
			"count":12360,
			"type":"SCALAR"
		},
		{
			"bufferView":23,
			"componentType":5126,
			"count":354,
			"max":[
				161.3018798828125,
				164.25958251953125,
				-4.023170471191406
			],
			"min":[
				-161.31556701660156,
				-163.32228088378906,
				-324.61578369140625
			],
			"type":"VEC3"
		},
		{
			"bufferView":24,
			"componentType":5126,
			"count":354,
			"type":"VEC3"
		},
		{
			"bufferView":25,
			"componentType":5126,
			"count":354,
			"type":"VEC2"
		},
		{
			"bufferView":26,
			"componentType":5123,
			"count":1680,
			"type":"SCALAR"
		},
		{
			"bufferView":27,
			"componentType":5126,
			"count":1843,
			"max":[
				190.47703552246094,
				175.334228515625,
				-200.8960418701172
			],
			"min":[
				-190.56216430664062,
				-192.43649291992188,
				-388.38470458984375
			],
			"type":"VEC3"
		},
		{
			"bufferView":28,
			"componentType":5126,
			"count":1843,
			"type":"VEC3"
		},
		{
			"bufferView":29,
			"componentType":5126,
			"count":1843,
			"type":"VEC2"
		},
		{
			"bufferView":30,
			"componentType":5123,
			"count":7836,
			"type":"SCALAR"
		},
		{
			"bufferView":31,
			"componentType":5126,
			"count":61,
			"max":[
				172.52725219726562,
				184.52728271484375,
				1.4913177490234375
			],
			"min":[
				-172.5272216796875,
				-160.52723693847656,
				-16.26397705078125
			],
			"type":"VEC3"
		},
		{
			"bufferView":32,
			"componentType":5126,
			"count":61,
			"type":"VEC3"
		},
		{
			"bufferView":33,
			"componentType":5126,
			"count":61,
			"type":"VEC2"
		},
		{
			"bufferView":34,
			"componentType":5126,
			"count":61,
			"type":"VEC4"
		},
		{
			"bufferView":35,
			"componentType":5123,
			"count":300,
			"type":"SCALAR"
		},
		{
			"bufferView":36,
			"componentType":5126,
			"count":6393,
			"max":[
				519.5379638671875,
				491.99462890625,
				6.45921516418457
			],
			"min":[
				-502.6424560546875,
				-488.31317138671875,
				-25.291706085205078
			],
			"type":"VEC3"
		},
		{
			"bufferView":37,
			"componentType":5126,
			"count":6393,
			"type":"VEC3"
		},
		{
			"bufferView":38,
			"componentType":5126,
			"count":6393,
			"type":"VEC2"
		},
		{
			"bufferView":39,
			"componentType":5126,
			"count":6393,
			"type":"VEC4"
		},
		{
			"bufferView":40,
			"componentType":5123,
			"count":23040,
			"type":"SCALAR"
		}
	],
	"bufferViews":[
		{
			"buffer":0,
			"byteLength":5988,
			"byteOffset":0,
			"target":34962
		},
		{
			"buffer":0,
			"byteLength":5988,
			"byteOffset":5988,
			"target":34962
		},
		{
			"buffer":0,
			"byteLength":3992,
			"byteOffset":11976,
			"target":34962
		},
		{
			"buffer":0,
			"byteLength":7984,
			"byteOffset":15968,
			"target":34962
		},
		{
			"buffer":0,
			"byteLength":4788,
			"byteOffset":23952,
			"target":34963
		},
		{
			"buffer":0,
			"byteLength":4320,
			"byteOffset":28740,
			"target":34962
		},
		{
			"buffer":0,
			"byteLength":4320,
			"byteOffset":33060,
			"target":34962
		},
		{
			"buffer":0,
			"byteLength":2880,
			"byteOffset":37380,
			"target":34962
		},
		{
			"buffer":0,
			"byteLength":5760,
			"byteOffset":40260,
			"target":34962
		},
		{
			"buffer":0,
			"byteLength":3480,
			"byteOffset":46020,
			"target":34963
		},
		{
			"buffer":0,
			"byteLength":10392,
			"byteOffset":49500,
			"target":34962
		},
		{
			"buffer":0,
			"byteLength":10392,
			"byteOffset":59892,
			"target":34962
		},
		{
			"buffer":0,
			"byteLength":6928,
			"byteOffset":70284,
			"target":34962
		},
		{
			"buffer":0,
			"byteLength":13856,
			"byteOffset":77212,
			"target":34962
		},
		{
			"buffer":0,
			"byteLength":8880,
			"byteOffset":91068,
			"target":34963
		},
		{
			"buffer":0,
			"byteLength":25572,
			"byteOffset":99948,
			"target":34962
		},
		{
			"buffer":0,
			"byteLength":25572,
			"byteOffset":125520,
			"target":34962
		},
		{
			"buffer":0,
			"byteLength":17048,
			"byteOffset":151092,
			"target":34962
		},
		{
			"buffer":0,
			"byteLength":15360,
			"byteOffset":168140,
			"target":34963
		},
		{
			"buffer":0,
			"byteLength":55980,
			"byteOffset":183500,
			"target":34962
		},
		{
			"buffer":0,
			"byteLength":55980,
			"byteOffset":239480,
			"target":34962
		},
		{
			"buffer":0,
			"byteLength":37320,
			"byteOffset":295460,
			"target":34962
		},
		{
			"buffer":0,
			"byteLength":24720,
			"byteOffset":332780,
			"target":34963
		},
		{
			"buffer":0,
			"byteLength":4248,
			"byteOffset":357500,
			"target":34962
		},
		{
			"buffer":0,
			"byteLength":4248,
			"byteOffset":361748,
			"target":34962
		},
		{
			"buffer":0,
			"byteLength":2832,
			"byteOffset":365996,
			"target":34962
		},
		{
			"buffer":0,
			"byteLength":3360,
			"byteOffset":368828,
			"target":34963
		},
		{
			"buffer":0,
			"byteLength":22116,
			"byteOffset":372188,
			"target":34962
		},
		{
			"buffer":0,
			"byteLength":22116,
			"byteOffset":394304,
			"target":34962
		},
		{
			"buffer":0,
			"byteLength":14744,
			"byteOffset":416420,
			"target":34962
		},
		{
			"buffer":0,
			"byteLength":15672,
			"byteOffset":431164,
			"target":34963
		},
		{
			"buffer":0,
			"byteLength":732,
			"byteOffset":446836,
			"target":34962
		},
		{
			"buffer":0,
			"byteLength":732,
			"byteOffset":447568,
			"target":34962
		},
		{
			"buffer":0,
			"byteLength":488,
			"byteOffset":448300,
			"target":34962
		},
		{
			"buffer":0,
			"byteLength":976,
			"byteOffset":448788,
			"target":34962
		},
		{
			"buffer":0,
			"byteLength":600,
			"byteOffset":449764,
			"target":34963
		},
		{
			"buffer":0,
			"byteLength":76716,
			"byteOffset":450364,
			"target":34962
		},
		{
			"buffer":0,
			"byteLength":76716,
			"byteOffset":527080,
			"target":34962
		},
		{
			"buffer":0,
			"byteLength":51144,
			"byteOffset":603796,
			"target":34962
		},
		{
			"buffer":0,
			"byteLength":102288,
			"byteOffset":654940,
			"target":34962
		},
		{
			"buffer":0,
			"byteLength":46080,
			"byteOffset":757228,
			"target":34963
		}
	],
	"samplers":[
		{
			"magFilter":9729,
			"minFilter":9987
		}
	],
	"buffers":[
		{
			"byteLength":803308,
			"uri":"Terrain02.bin"
		}
	]
}
